<svg width="29" height="29" viewBox="0 0 29 29" fill="none" xmlns="http://www.w3.org/2000/svg">
<rect width="29" height="29" fill="#1E1E1E"/>
<g id="Waitlist - Mobile">
<g clip-path="url(#clip0_0_1)">
<rect x="-182" y="-69" width="393" height="852" rx="36" fill="white"/>
<g id="Frame 1321314500" filter="url(#filter0_b_0_1)">
<path id="image 54 (Traced)" fill-rule="evenodd" clip-rule="evenodd" d="M12.5757 0.129877C12.5489 0.250384 12.5051 1.92965 12.4785 3.86155C12.4318 7.27116 12.0979 10.2906 11.7267 10.664C11.537 10.855 9.44672 8.80803 6.29781 5.34763C5.28354 4.23307 4.29829 3.22416 4.10838 3.10582C3.68451 2.84129 0 4.97935 0 5.48976C0 5.6824 1.71561 7.64457 3.81237 9.84964L7.62447 13.8588L4.14813 13.9939L0.671523 14.129L0.484034 16.4065C0.380888 17.6591 0.357788 18.7839 0.432729 18.9058C0.507671 19.0279 1.7704 19.1276 3.23916 19.1276C4.70791 19.1276 5.9094 19.199 5.9094 19.2865C5.9094 19.3738 5.01064 20.4275 3.91229 21.6283L1.91518 23.8115L3.19511 24.4081C3.89886 24.7361 4.79199 25.3235 5.17986 25.7137C5.56773 26.1038 6.00476 26.4229 6.15088 26.4229C6.29728 26.4229 6.93737 25.8496 7.57344 25.1487C8.2095 24.4478 9.30301 23.2624 10.0038 22.5143L11.2778 21.1541L11.2574 24.859C11.2464 26.8966 11.2988 28.6639 11.3743 28.7866C11.4495 28.9093 12.5776 29.0052 13.8809 28.9998L16.2509 28.9898L16.3852 26.0676L16.5195 23.1454L17.5944 24.0411C18.1857 24.5337 19.2023 25.3535 19.8534 25.8625L21.0377 26.7882L21.8677 26.31C23.679 25.2659 24.0693 25.0655 24.7983 24.8031L25.556 24.5305L25.0051 23.8261C24.7024 23.4386 23.491 22.3427 22.3134 21.3908C21.1358 20.4386 20.1062 19.5524 20.0256 19.4211C19.945 19.2897 20.7243 19.0968 21.7573 18.9925C22.7904 18.8882 23.5686 18.6934 23.4864 18.5599C23.4045 18.4262 23.7574 18.317 24.271 18.317C24.7843 18.317 25.2447 18.4275 25.2941 18.5624C25.3433 18.6975 25.6105 18.8496 25.888 18.9001C26.2874 18.9733 26.5665 18.5862 27.2311 17.0369C27.8126 15.681 28.2139 15.0804 28.5397 15.0779C29.0745 15.0741 29.1653 14.6629 28.6955 14.3708C28.3504 14.1563 27.6485 14.1204 22.3322 14.045L18.7438 13.9939L22.2758 10.3149L25.8074 6.6362L25.3473 5.92423C24.5044 4.6208 22.9908 2.91587 22.6763 2.91587C22.5054 2.91587 21.2013 4.15201 19.7785 5.66322C18.3557 7.17416 17.1523 8.35951 17.1045 8.29763C17.0567 8.23549 17.1158 6.66484 17.2358 4.80724C17.3562 2.94964 17.4013 1.28415 17.3366 1.10609C17.1432 0.57543 12.6805 -0.339724 12.5757 0.129877Z" fill="url(#paint0_linear_0_1)"/>
</g>
</g>
</g>
<defs>
<filter id="filter0_b_0_1" x="-186" y="-16" width="401" height="61" filterUnits="userSpaceOnUse" color-interpolation-filters="sRGB">
<feFlood flood-opacity="0" result="BackgroundImageFix"/>
<feGaussianBlur in="BackgroundImageFix" stdDeviation="2"/>
<feComposite in2="SourceAlpha" operator="in" result="effect1_backgroundBlur_0_1"/>
<feBlend mode="normal" in="SourceGraphic" in2="effect1_backgroundBlur_0_1" result="shape"/>
</filter>
<linearGradient id="paint0_linear_0_1" x1="14.5" y1="0" x2="14.5" y2="29" gradientUnits="userSpaceOnUse">
<stop stop-color="#3076FF"/>
<stop offset="1" stop-color="#1D49E5"/>
</linearGradient>
<clipPath id="clip0_0_1">
<rect x="-182" y="-69" width="393" height="852" rx="36" fill="white"/>
</clipPath>
</defs>
</svg>
