<svg width="16" height="14" viewBox="0 0 16 14" fill="none" xmlns="http://www.w3.org/2000/svg">
<path d="M0.116699 7.00684C0.116699 6.79932 0.208008 6.6084 0.374023 6.45068L5.86914 0.963867C6.05176 0.78125 6.22607 0.714844 6.42529 0.714844C6.83203 0.714844 7.15576 1.01367 7.15576 1.42871C7.15576 1.62793 7.08105 1.81885 6.94824 1.95166L5.08887 3.84424L2.2998 6.39258L4.30029 6.26807H14.8008C15.2324 6.26807 15.5312 6.5752 15.5312 7.00684C15.5312 7.43848 15.2324 7.74561 14.8008 7.74561H4.30029L2.2915 7.62109L5.08887 10.1694L6.94824 12.062C7.08105 12.1865 7.15576 12.3857 7.15576 12.585C7.15576 13 6.83203 13.2988 6.42529 13.2988C6.22607 13.2988 6.05176 13.2241 5.88574 13.0664L0.374023 7.56299C0.208008 7.40527 0.116699 7.21436 0.116699 7.00684Z" fill="#191919"/>
</svg>
