<svg width="51" height="52" viewBox="0 0 51 52" fill="none" xmlns="http://www.w3.org/2000/svg">
<rect width="51" height="52" fill="#F5F5F5"/>
<g id="Full flow - Desktop" clip-path="url(#clip0_0_1)">
<rect width="1440" height="9216" transform="translate(-694 -378)" fill="white"/>
<g id="Home - Headline">
<g id="Logo">
<path id="image 54 (Traced)" fill-rule="evenodd" clip-rule="evenodd" d="M22.116 0.728404C22.0687 0.94033 21.9917 3.89353 21.945 7.29101C21.8628 13.2872 21.2756 18.5973 20.6228 19.2539C20.2893 19.5899 16.6132 15.99 11.0755 9.90446C9.29175 7.94437 7.55905 6.17008 7.22508 5.96195C6.47966 5.49676 0 9.2568 0 10.1544C0 10.4932 3.0171 13.9439 6.70451 17.8218L13.4086 24.8724L7.29499 25.11L1.18095 25.3476L0.851232 29.3528C0.669837 31.5557 0.629212 33.5338 0.761007 33.7481C0.892802 33.9629 3.11347 34.1382 5.69645 34.1382C8.27944 34.1382 10.3924 34.2637 10.3924 34.4176C10.3924 34.5711 8.81181 36.4243 6.88024 38.536L3.36808 42.3754L5.61898 43.4245C6.85662 44.0014 8.42729 45.0344 9.10941 45.7206C9.79153 46.4067 10.5601 46.9679 10.8171 46.9679C11.0745 46.9679 12.2002 45.9596 13.3188 44.727C14.4374 43.4944 16.3605 41.4098 17.5929 40.094L19.8334 37.702L19.7975 44.2176C19.7782 47.8009 19.8703 50.909 20.003 51.1247C20.1353 51.3404 22.1193 51.5091 24.4113 51.4996L28.5791 51.482L28.8153 46.343L29.0515 41.2041L30.9419 42.7793C31.9817 43.6455 33.7696 45.0872 34.9147 45.9824L36.9974 47.6103L38.4571 46.7693C41.6423 44.9332 42.3287 44.5806 43.6108 44.1192L44.9433 43.6398L43.9745 42.401C43.4421 41.7196 41.3117 39.7923 39.2408 38.1183C37.1698 36.4438 35.3592 34.8852 35.2175 34.6543C35.0758 34.4233 36.4461 34.0841 38.2629 33.9007C40.0797 33.7172 41.4482 33.3746 41.3036 33.1399C41.1596 32.9047 41.7803 32.7127 42.6835 32.7127C43.5862 32.7127 44.3959 32.9071 44.4828 33.1442C44.5692 33.3818 45.0392 33.6493 45.5272 33.7381C46.2296 33.8669 46.7204 33.186 47.8891 30.4614C48.9118 28.0769 49.6176 27.0206 50.1906 27.0164C51.1311 27.0097 51.2907 26.2865 50.4645 25.7728C49.8575 25.3955 48.6232 25.3324 39.2738 25.1998L32.9633 25.11L39.1746 18.64L45.3855 12.1706L44.5763 10.9185C43.094 8.62624 40.4321 5.62791 39.8789 5.62791C39.5785 5.62791 37.2851 7.80182 34.7829 10.4595C32.2807 13.1166 30.1644 15.2012 30.0803 15.0924C29.9962 14.9831 30.1002 12.2209 30.3113 8.95411C30.5229 5.6873 30.6023 2.75834 30.4885 2.4452C30.1483 1.51196 22.3002 -0.097446 22.116 0.728404Z" fill="url(#paint0_linear_0_1)"/>
</g>
</g>
</g>
<defs>
<linearGradient id="paint0_linear_0_1" x1="25.5" y1="0.5" x2="25.5" y2="51.5" gradientUnits="userSpaceOnUse">
<stop stop-color="#3076FF"/>
<stop offset="1" stop-color="#1D49E5"/>
</linearGradient>
<clipPath id="clip0_0_1">
<rect width="1440" height="9216" fill="white" transform="translate(-694 -378)"/>
</clipPath>
</defs>
</svg>
